#!OML:ASF E:/inclinewalkrobotboard/Project1/Captureday1/Session1/subject1.ASF
:FULLY-SPECIFIED
:DEGREES
351
root 0 0 0 -1.3857581796094731 -1.295602704894189 -4.010288697025033
lowerback 19.847499576010726 2.988608505174364 0.02410398569678196
upperback 2.1431750795157085 4.034162680745986 -0.48055038284002216
thorax -8.794480736284601 1.9457781088058126 -1.1881416916891718
lowerneck -8.492401562255976 -5.997937382458479 -1.4189166951429317
upperneck -0.78094692728083 -8.664074087210253 5.784595776218175
head 1.440732128362522 -3.9664157886626032 1.5051016417761716
rclavicle -8.739295879801815E-16 4.1498082074653146E-16
rhumerus 36.17120233407984 -5.244350313147545 -28.85726482461748
rradius 149.05245817873254
rwrist -25.007535725755446
rhand -19.064526043498333 -31.54774820132215
rfingers 7.125019999999955
rthumb 7.261931983248804 -61.339606371075476
lclavicle -2.1646398689962676E-15 8.037131326789304E-16
lhumerus -47.04850013319648 -6.532094052489427 80.31351225004532
lradius 62.14445241332185
lwrist 10.787971432535393
lhand -14.400364005908315 -20.217591698340545
lfingers 7.125019999999873
lthumb 11.675805719385131 9.452367049487814
rfemur -7.622208683978942 8.555640872806407 35.00992642730031
rtibia 29.70876368892221
rfoot -19.300226181966526 -8.00033468716554
rtoes 8.225311907178632
lfemur -22.490329748945562 3.4265580120876176 -13.781134472714028
ltibia 63.45844687974082
lfoot -1.8462879592810246 -7.349498361404652
ltoes -5.320767955162637
352
root 0 0 0 -1.4286621088912206 -1.3784523722919744 -4.00833363939703
lowerback 19.72634789798812 3.0212524830471024 0.1055402591431841
upperback 2.193580688336894 4.080157420573618 -0.5110834446373651
thorax -8.67550716363456 1.9668195434021283 -1.2685524568207633
lowerneck -8.574072234247366 -5.98717830633189 -1.487895471943137
upperneck -0.8627257029467952 -8.651967950740328 5.864041492360961
head 1.407011992795078 -3.959656895821003 1.542420309187452
rclavicle -9.244189868786353E-16 4.414150815379636E-16
rhumerus 36.47843108853227 -4.366074042002855 -28.881061194748533
rradius 149.93407452243082
rwrist -25.005965684542065
rhand -19.11968407060267 -31.308246281067174
rfingers 7.125019999999953
rthumb 7.209121129996418 -61.10555710129405
lclavicle -2.0010095851397552E-15 7.574496879072179E-16
lhumerus -47.22375271859473 -6.3783828128622835 80.0860458424592
lradius 62.093108699232815
lwrist 10.801257610299274
lhand -14.457551211663015 -20.076521483213167
lfingers 7.125019999999871
lthumb 11.622290889670396 9.614169042735043
rfemur -3.4478405502872636 8.912795110432754 35.546443777156185
rtibia 27.365971419302483
rfoot -20.79921779793665 -7.983202668077657
rtoes 7.093688675983565
lfemur -23.542708745429106 3.2059949634087315 -13.997215423609498
ltibia 61.103655809136484
lfoot -2.274091414519372 -6.655159496413018
ltoes -3.556355433743164
353
root 0 0 0 -1.4540246355329594 -1.4443517710962364 -4.005534104367105
lowerback 19.700894662777287 3.0341752522538927 0.1411161352337651
upperback 2.222618771860943 4.098667827211397 -0.523125644645901
thorax -8.632658416471637 1.9748837576617206 -1.3026381858835394
lowerneck -8.603826814176617 -5.974048854411958 -1.504654108491238
upperneck -0.9364381081041966 -8.631268962635247 5.877736494019054
head 1.3812367624607624 -3.9508637542303955 1.5512118814937388
rclavicle -9.467417186360271E-16 5.531685088907993E-16
rhumerus 36.60801297227134 -3.9591704180270186 -28.930108568666974
rradius 150.42024186615288
rwrist -24.96711291783756
rhand -19.19667402021405 -31.182146513001783
rfingers 7.125019999999952
rthumb 7.135216997041868 -60.98545268396136
lclavicle -1.8459571172090506E-15 8.018461486747252E-16
lhumerus -47.323011651178184 -6.274691721364881 79.94236723250138
lradius 62.05090368152622
lwrist 10.800701855498863
lhand -14.495479728494876 -20.000841496114468
lfingers 7.12501999999987
lthumb 11.58729246866559 9.705495757149441
rfemur -1.1649865817323701 8.99397664100307 35.73498849127991
rtibia 26.551008759179616
rfoot -21.492616822298373 -7.913966834915845
rtoes 6.3735965468488445
lfemur -24.64747345836852 2.870166026034314 -14.435569144532458
ltibia 57.86813138272569
lfoot -2.6494215876010205 -5.92285118574008
ltoes -1.02460799830083
354
root 0 0 0 -1.4694629188970219 -1.4951695507932623 -3.999721164378449
lowerback 19.74449607222951 3.035462486673558 0.15234250805656913
upperback 2.244486113754219 4.100717519285658 -0.5281970593131291
thorax -8.635926534309439 1.9750420854038522 -1.3150532110488058
lowerneck -8.61316752979534 -5.961456371469929 -1.4953744981346662
upperneck -1.0465042882830673 -8.607885483568205 5.854860796136997
head 1.3468210394777795 -3.94238532253532 1.5447230243171286
rclavicle -9.005509119989698E-16 7.239915317783162E-16
rhumerus 36.61856430886604 -3.900462391891111 -29.013659090550917
rradius 150.61166105447512
rwrist -24.824580280192
rhand -19.296612959879393 -31.12019493875512
rfingers 7.125019999999953
rthumb 7.039684294622762 -60.92979774164043
lclavicle -1.7286808551051739E-15 9.171967694593465E-16
lhumerus -47.369515685148116 -6.213299446155834 79.85322224873156
lradius 62.02210818702365
lwrist 10.804887353769837
lhand -14.525353763763185 -19.945480355579182
lfingers 7.125019999999869
lthumb 11.559170924676744 9.771915099153718
rfemur -0.2506001915148559 8.971380647005859 35.75183321080387
rtibia 26.50589571296252
rfoot -21.682969258123826 -7.891296184862635
rtoes 5.860910748637812
lfemur -25.752802338958215 2.427023659349857 -15.157625194022986
ltibia 53.76481164717714
lfoot -2.9828265642005043 -5.17225669952044
ltoes 2.3769512720078367
355
root 0 0 0 -1.4784582407408349 -1.5336893438728683 -3.991522467430295
lowerback 19.829287031042057 3.02948953479742 0.14805607172082969
upperback 2.2632422506158116 4.092364117265818 -0.5286351028355176
thorax -8.665196469083579 1.9702870840954807 -1.3133559826427295
lowerneck -8.61004188259201 -5.950044398127362 -1.4718692342659938
upperneck -1.1657726132772925 -8.584344016824994 5.811144371443223
head 1.3112322669502348 -3.9346153310071967 1.5294010078610585
rclavicle -7.87875142023704E-16 9.170387901137962E-16
rhumerus 36.52547289209937 -4.0997092425375525 -29.171466807538017
rradius 150.54131552238334
rwrist -24.496848926166308
rhand -19.424597356735468 -31.067045594522483
rfingers 7.125019999999955
rthumb 6.9176562080524 -60.88362127415295
lclavicle -1.6295342907063542E-15 1.0591631764929043E-15
lhumerus -47.384706889425516 -6.17426012794732 79.78535167630335
lradius 62.00033607075869
lwrist 10.821236754880502
lhand -14.558854794842501 -19.881686099758877
lfingers 7.125019999999867
lthumb 11.526452243153386 9.84685044890686
rfemur -0.20098884885348944 8.88772755384964 35.65355137280034
rtibia 26.962188497799062
rfoot -21.525526870061 -7.916520187149179
rtoes 5.407512655421263
lfemur -26.623813392368188 1.8815433368056742 -16.10100739150199
ltibia 49.098070208585725
lfoot -3.175354185308727 -4.5098395062182
ltoes 6.268127208180978
356
root 0 0 0 -1.4814880893969726 -1.5590136133213117 -3.9825229855064617
lowerback 19.932632299982764 3.018315068358494 0.1301838420374487
upperback 2.2770065793338894 4.076474267805589 -0.5231901568421862
thorax -8.70945543048879 1.9621956016081157 -1.297294764287899
lowerneck -8.593292605273819 -5.940382906113893 -1.4389067793821775
upperneck -1.2461472774305768 -8.562983053200837 5.755263542336518
head 1.2894954428380228 -3.9277783887166295 1.5082153033794667
rclavicle -6.224376473178881E-16 1.0881608768765943E-15
rhumerus 36.334057050499716 -4.510244719637931 -29.414354457965224
rradius 150.20438348681472
rwrist -23.967472533939034
rhand -19.570779117407348 -31.00027051100195
rfingers 7.1250199999999575
rthumb 6.778415634529935 -60.82410502862629
lclavicle -1.5132455359164687E-15 1.1804262420404335E-15
lhumerus -47.38227904481766 -6.144432285302945 79.72418188106472
lradius 61.980408113740765
lwrist 10.846843859071939
lhand -14.598359402282371 -19.806345260684537
lfingers 7.125019999999865
lthumb 11.48709254173459 9.935506081615781
rfemur -0.9261432211902703 8.743683872381538 35.44021093274422
rtibia 27.9387862775514
rfoot -20.99270483036094 -7.979003065450827
rtoes 4.975272637815009
lfemur -26.81105007994341 1.3022874812709397 -16.98839957913563
ltibia 44.91945979325319
lfoot -3.0511993474648236 -4.157471606484429
ltoes 9.442076023209445
357
root 0 0 0 -1.477410745607546 -1.5633580489373504 -3.97436096458751
lowerback 20.032799032102176 3.0027475459836284 0.09811114711293578
upperback 2.2824156324986724 4.0541245611912435 -0.5098692547940118
thorax -8.759611547115213 1.9515769660007751 -1.2641857704940656
lowerneck -8.560811543739744 -5.934837556365469 -1.4014751870211495
upperneck -1.2390951053723995 -8.548752633675385 5.6961675827717535
head 1.2965510878435191 -3.92332299419519 1.484093431087396
rclavicle -4.298556304143683E-16 1.1664115232919289E-15
rhumerus 36.05483527417417 -5.087446273860101 -29.725421538161307
rradius 149.58979760922682
rwrist -23.277452936585256
rhand -19.707843519935125 -30.917170703428702
rfingers 7.125019999999961
rthumb 6.647868536362129 -60.747439349351126
lclavicle -1.3579962999497228E-15 1.2220777450360846E-15
lhumerus -47.37138648467675 -6.118843427925353 79.66953802052177
lradius 61.961224406259944
lwrist 10.874215153276818
lhand -14.639010948153384 -19.731708221180092
lfingers 7.125019999999863
lthumb 11.446082268366613 10.024999860820062
rfemur -2.608492125910336 8.534472311013033 35.10503903842972
rtibia 29.573091287651614
rfoot -19.972951308532853 -8.080935532320199
rtoes 4.653657929719934
lfemur -26.016326572268245 0.7964707014607524 -17.695801189292474
ltibia 42.16916110776412
lfoot -2.4776246225894276 -4.348072727800514
ltoes 11.216400304884395
358
root 0 0 0 -1.465729548985236 -1.5373278310369067 -3.9675762593653268
lowerback 20.114588860610997 2.9823832154586594 0.050328861033675065
upperback 2.2795231602750254 4.024661218123629 -0.4867242400097058
thorax -8.806634204501714 1.938415961158308 -1.210659508506698
lowerneck -8.511105208859188 -5.936566183070239 -1.3650654373089761
upperneck -1.110150892060405 -8.547042699685907 5.64127458912219
head 1.3422819138917328 -3.9232501220924823 1.4596442539420251
rclavicle -2.1321262486496756E-16 1.0890815349007247E-15
rhumerus 35.68473283290908 -5.791343480128582 -30.106371922191094
rradius 148.66752284717703
rwrist -22.449923599395653
rhand -19.812610374433227 -30.80554810846482
rfingers 7.125019999999964
rthumb 6.548068308308288 -60.64059665124559
lclavicle -1.1669000898201443E-15 1.1407236637064405E-15
lhumerus -47.35556763306922 -6.0961772472591385 79.62295291783394
lradius 61.943371283564886
lwrist 10.900186748935678
lhand -14.677681395916073 -19.663968850539312
lfingers 7.125019999999862
lthumb 11.406467638812803 10.108390759545573
rfemur -5.5719895953662 8.255396348322598 34.64373734805975
rtibia 32.051786742421555
rfoot -18.346116502007682 -8.252239749402877
rtoes 4.655154802940151
lfemur -24.374193263625333 0.43480667360560377 -18.36038031383865
ltibia 40.94643663783305
lfoot -1.4907548914749036 -5.131157384645669
ltoes 12.01257903419441
